<svg width="276" height="74" viewBox="0 0 276 74" fill="none" xmlns="http://www.w3.org/2000/svg">
<rect width="276" height="74" rx="7" fill="#FF52C1"/>
<path d="M55.2053 20.5666C48.2408 20.5631 40.9743 22.1037 33.6402 24.102C32.7089 24.2862 31.8001 24.8847 31.3196 25.6249C30.8778 26.3226 30.7174 27.0229 30.5794 27.7569C29.8672 31.6774 29.9537 35.5271 30.1016 39.7929C30.134 40.7694 30.2819 41.9266 30.7462 42.6305C31.2312 43.3415 32.0625 43.793 33.0551 43.9409C34.3232 44.1236 35.5953 44.2786 36.8704 44.4057L36.5892 52.1068C36.5459 52.7195 36.8506 53.2286 37.2293 53.5217C37.5683 53.7749 37.946 53.8874 38.3337 53.9157C39.109 53.9732 40.0187 53.6474 40.4703 52.8028C42.4493 49.0629 43.6907 47.4116 46.1655 44.9272C52.6188 45.0831 58.2526 44.7307 64.6311 44.2676C66.8858 44.2101 68.4338 42.3994 68.8431 40.9536C70.0665 37.2066 70.2567 32.5814 70.3866 27.9056C70.4416 26.0525 69.787 24.233 68.6285 23.2715C67.5268 22.3941 66.1925 22.0762 64.97 21.7504C61.5739 20.9952 58.1768 20.5897 55.2053 20.5666ZM64.4823 23.4973C65.7066 23.824 66.7858 24.1383 67.4664 24.681C68.6024 25.8666 68.5645 26.6555 68.5483 27.9349C68.4203 32.4698 68.1985 36.8711 67.1563 40.2063C66.7073 41.4503 65.9248 42.3357 64.4462 42.4694C57.9478 42.9413 52.3095 43.3061 45.7778 43.1237C45.6506 43.1197 45.5239 43.1414 45.4056 43.1874C45.2873 43.2333 45.1799 43.3027 45.0899 43.3911C42.3456 46.1128 40.9419 48.004 38.8503 51.9581C38.8016 52.0484 38.6961 52.1033 38.5663 52.113C38.4788 52.1086 38.4437 52.0422 38.4382 51.982L38.7213 43.631C38.7385 43.1804 38.3598 42.7501 37.9036 42.7014C36.3783 42.5583 34.8571 42.3752 33.3418 42.1524C32.6872 42.0541 32.4456 41.878 32.2662 41.6159C31.9543 40.8854 31.9615 40.4339 31.9372 39.7318C31.7911 35.504 31.719 31.8093 32.3798 28.1332C32.4411 27.5896 32.6485 27.0335 32.8685 26.5687C33.2327 26.0091 33.7907 25.9268 34.3506 25.7745C41.5234 23.8293 48.541 22.3746 55.1476 22.3702C58.386 22.4853 61.7867 22.804 64.4823 23.4973V23.4973ZM39.7085 30.6601C38.7204 31.8226 38.8187 33.4012 39.5823 34.4584C39.9808 35.0118 40.6029 35.4571 41.3602 35.558C42.3438 35.6377 42.9676 35.2464 43.6411 34.7966C44.8609 33.7554 44.9844 31.9386 44.0567 30.6264C43.5843 29.958 42.8288 29.5569 42.0571 29.5286C41.0005 29.5392 40.2828 30.0022 39.7085 30.6592V30.6601ZM50.3973 29.7109C49.4129 29.7419 48.6168 30.4113 48.1308 31.1338C47.5746 31.9598 47.25 32.994 47.6999 34.0077C48.5654 35.9582 51.5558 35.9343 52.7486 33.952C53.2985 33.0382 53.1579 31.9997 52.7486 31.2462C52.3411 30.4936 51.7244 29.8801 50.8274 29.7393C50.6853 29.7163 50.5413 29.7068 50.3973 29.7109V29.7109ZM59.0748 29.8942C58.7683 29.8871 58.4527 29.9155 58.157 29.9925C56.9742 30.3024 55.9671 31.5012 56.1195 33.0356C56.197 33.8076 56.5586 34.5602 57.2104 35.0791C57.8622 35.597 58.8088 35.829 59.8068 35.628C60.9536 35.3978 61.664 34.4903 61.9012 33.6137C62.1383 32.7372 62.0788 31.8438 61.5279 31.1196C61.2413 30.7453 60.8714 30.4403 60.4463 30.2279C60.0213 30.0156 59.5525 29.9014 59.0757 29.8942H59.0748ZM41.9768 31.3312C42.1977 31.333 42.3717 31.402 42.5511 31.6553C42.9523 32.2237 42.8405 33.0852 42.4357 33.4305C42.0327 33.7758 41.7812 33.8059 41.6045 33.7828C41.4278 33.7589 41.2484 33.6394 41.0879 33.4163C40.7814 32.9913 40.6912 32.3042 41.0942 31.8137C41.3088 31.534 41.7028 31.3595 41.9777 31.3312H41.9768ZM50.5263 31.5286C50.5605 31.534 50.9446 31.7526 51.1285 32.0918C51.3124 32.4309 51.3467 32.7461 51.1718 33.0356C50.6516 33.8997 49.5454 33.666 49.3777 33.2897C49.3146 33.1462 49.3624 32.5699 49.6662 32.121C49.9682 31.6703 50.3487 31.5012 50.5263 31.5278V31.5286ZM60.0503 32.1909C60.1062 32.2644 60.2423 32.7576 60.1368 33.1489C60.0304 33.5402 59.8573 33.782 59.4336 33.867C58.8909 33.9767 58.5861 33.867 58.3581 33.6837C58.1291 33.5022 57.9749 33.1949 57.9415 32.8665C57.8604 32.0519 58.1579 31.8633 58.6303 31.7394C59.1803 31.6066 59.8023 31.8385 60.0503 32.1909V32.1909Z" fill="white"/>
<path d="M81.9301 24.2118C81.9445 23.9816 82.0301 23.7744 82.1888 23.5911C82.266 23.5013 82.3631 23.4299 82.4726 23.3823C82.5821 23.3348 82.7011 23.3123 82.8208 23.3167H88.9748C89.1821 23.3167 89.3958 23.4017 89.6167 23.5708C89.7202 23.6437 89.8043 23.7401 89.8621 23.8516C89.9198 23.9631 89.9494 24.0867 89.9485 24.2118V33.8563H100.245V24.2118C100.245 23.9674 100.332 23.7576 100.504 23.5814C100.677 23.4043 100.901 23.3158 101.177 23.3158H107.248C107.524 23.3158 107.766 23.384 107.973 23.5194C108.181 23.6558 108.284 23.8727 108.284 24.1711V52.6363C108.284 52.9347 108.194 53.1587 108.014 53.3074C107.835 53.4571 107.6 53.5314 107.311 53.5314H101.177C100.901 53.5314 100.677 53.4571 100.504 53.3074C100.332 53.1587 100.245 52.9356 100.245 52.6363V41.0793H89.9485V52.6363C89.9485 52.9214 89.8547 53.141 89.669 53.2977C89.4824 53.4535 89.2299 53.5314 88.9117 53.5314H82.8208C82.2411 53.5314 81.9445 53.2667 81.9301 52.7381V24.2118ZM138.615 53.1861C138.436 53.3349 138.246 53.4296 138.045 53.4703C137.858 53.5099 137.668 53.5307 137.477 53.5323H134.348C134.099 53.5323 133.885 53.4881 133.705 53.3995C133.525 53.311 133.374 53.1923 133.249 53.0436C133.122 52.8891 133.017 52.7177 132.939 52.5345C132.856 52.3431 132.786 52.146 132.732 51.9448L132.09 49.34C131.882 49.7606 131.582 50.2387 131.188 50.7743C130.762 51.3428 130.256 51.8495 129.686 52.2795C129.079 52.7487 128.353 53.1419 127.511 53.4606C126.668 53.7793 125.701 53.9387 124.61 53.9387C123.035 53.9387 121.606 53.6403 120.321 53.0436C119.063 52.4664 117.944 51.6342 117.037 50.6017C116.133 49.5711 115.432 48.367 114.935 46.9893C114.437 45.6134 114.189 44.1445 114.189 42.5854V29.2576C114.189 28.7423 114.303 28.3528 114.531 28.088C114.758 27.8233 115.121 27.6914 115.618 27.6914H120.404C120.999 27.6914 121.405 27.7888 121.626 27.9862C121.847 28.1828 121.958 28.5661 121.958 29.1354V42.3809C121.958 42.9652 122.093 43.5177 122.362 44.0401C122.632 44.5624 122.987 45.0228 123.429 45.423C123.871 45.8232 124.372 46.1393 124.931 46.3695C125.49 46.5997 126.06 46.7148 126.641 46.7148C127.138 46.7148 127.652 46.5997 128.184 46.3695C128.72 46.1364 129.216 45.824 129.655 45.4434C130.104 45.0574 130.473 44.6023 130.764 44.0799C131.054 43.5575 131.198 43.005 131.198 42.4225V29.1965C131.198 28.9663 131.243 28.7361 131.333 28.505C131.423 28.2748 131.558 28.0978 131.737 27.9756C131.917 27.8676 132.086 27.7932 132.245 27.7525C132.403 27.7117 132.587 27.6905 132.794 27.6905H137.477C138.07 27.6905 138.498 27.8339 138.76 28.1181C139.023 28.4032 139.154 28.7831 139.154 29.2576V52.0263C139.154 52.283 139.096 52.5212 138.979 52.7381C138.861 52.955 138.699 53.125 138.492 53.2463L138.615 53.1861V53.1861ZM162.669 50.3777C162.296 50.7442 161.885 51.1373 161.437 51.5579C160.988 51.9785 160.494 52.3725 159.956 52.7381C159.414 53.1061 158.83 53.4101 158.216 53.6439C157.574 53.8849 156.892 54.0056 156.205 53.9998C154.327 53.9998 152.597 53.6545 151.015 52.9621C149.473 52.2975 148.084 51.3317 146.934 50.1236C145.794 48.923 144.904 47.509 144.262 45.8808C143.619 44.2534 143.298 42.5039 143.298 40.6313C143.298 38.7454 143.619 36.9924 144.262 35.3721C144.904 33.7519 145.794 32.3405 146.934 31.14C148.083 29.9329 149.472 28.9704 151.015 28.312C152.597 27.6267 154.327 27.2841 156.205 27.2841C156.965 27.2841 157.66 27.393 158.288 27.6099C158.894 27.8162 159.472 28.0964 160.007 28.4439C160.526 28.7831 161.002 29.1664 161.437 29.5932C161.872 30.0208 162.283 30.4378 162.669 30.8451V21.5459C162.669 21.112 162.805 20.7464 163.073 20.448C163.343 20.1487 163.747 20 164.286 20H168.947C169.127 20 169.317 20.0372 169.517 20.1116C169.717 20.1868 169.9 20.2913 170.067 20.4276C170.232 20.5631 170.366 20.726 170.47 20.9155C170.573 21.1059 170.626 21.3157 170.626 21.5459V51.9652C170.626 53.0099 170.067 53.5323 168.947 53.5323H164.886C164.611 53.5323 164.396 53.4969 164.245 53.4296C164.094 53.3633 163.962 53.2621 163.86 53.1348C163.745 52.9855 163.651 52.8213 163.581 52.6469C163.483 52.4172 163.38 52.1899 163.271 51.9652L162.669 50.3777V50.3777ZM150.756 40.6313C150.749 41.487 150.893 42.3373 151.181 43.1449C151.464 43.9241 151.868 44.5996 152.394 45.1689C152.924 45.7427 153.569 46.2032 154.289 46.5218C155.028 46.8547 155.847 47.0203 156.744 47.0203C157.628 47.0203 158.46 46.8645 159.241 46.5528C159.999 46.2545 160.692 45.8156 161.281 45.2601C161.867 44.7038 162.341 44.045 162.68 43.3176C163.032 42.5712 163.229 41.7708 163.271 40.9164V40.6313C163.274 39.7799 163.105 38.9363 162.773 38.1496C162.452 37.3783 161.985 36.674 161.396 36.0742C160.805 35.4751 160.101 34.9948 159.324 34.6603C158.511 34.3106 157.632 34.1337 156.744 34.1414C155.847 34.1414 155.028 34.3141 154.289 34.6603C153.549 35.0056 152.918 35.4775 152.394 36.0742C151.86 36.6851 151.449 37.3892 151.181 38.1496C150.896 38.947 150.753 39.7864 150.757 40.6313H150.756ZM194.68 50.3777C194.307 50.7442 193.896 51.1373 193.447 51.5579C192.998 51.9785 192.504 52.3725 191.965 52.7381C191.424 53.1061 190.84 53.4101 190.225 53.6439C189.584 53.8849 188.902 54.0056 188.215 53.9998C186.337 53.9998 184.607 53.6545 183.026 52.9621C181.483 52.2976 180.094 51.3318 178.943 50.1236C177.805 48.923 176.913 47.509 176.271 45.8808C175.629 44.2534 175.307 42.5039 175.307 40.6313C175.307 38.7454 175.629 36.9924 176.271 35.3721C176.913 33.7519 177.804 32.3405 178.943 31.14C180.093 29.9328 181.482 28.9703 183.026 28.312C184.607 27.6267 186.337 27.2841 188.215 27.2841C188.975 27.2841 189.669 27.393 190.298 27.6099C190.904 27.8162 191.482 28.0964 192.017 28.4439C192.535 28.7831 193.011 29.1664 193.447 29.5932C193.882 30.0208 194.292 30.4378 194.679 30.8451V21.5459C194.679 21.112 194.814 20.7464 195.083 20.448C195.353 20.1487 195.756 20 196.296 20H200.957C201.137 20 201.326 20.0372 201.526 20.1116C201.727 20.1868 201.91 20.2913 202.076 20.4276C202.241 20.5631 202.377 20.726 202.48 20.9155C202.583 21.1059 202.635 21.3157 202.635 21.5459V51.9652C202.635 53.0099 202.076 53.5323 200.957 53.5323H196.896C196.62 53.5323 196.406 53.4969 196.254 53.4296C196.104 53.3632 195.973 53.262 195.871 53.1348C195.756 52.9855 195.662 52.8213 195.591 52.6469C195.494 52.4172 195.39 52.1899 195.28 51.9652L194.679 50.3777H194.68ZM182.766 40.6313C182.759 41.487 182.903 42.3373 183.191 43.1449C183.475 43.9241 183.879 44.5996 184.403 45.1689C184.934 45.7428 185.579 46.2033 186.299 46.5218C187.038 46.8547 187.856 47.0203 188.754 47.0203C189.638 47.0203 190.47 46.8645 191.251 46.5528C192.009 46.2546 192.702 45.8157 193.292 45.2601C193.876 44.7037 194.35 44.0449 194.689 43.3176C195.042 42.5712 195.239 41.7708 195.28 40.9164V40.6313C195.284 39.7799 195.114 38.9363 194.783 38.1496C194.462 37.3783 193.994 36.674 193.405 36.0742C192.815 35.4751 192.111 34.9948 191.333 34.6603C190.521 34.3106 189.642 34.1337 188.754 34.1414C187.856 34.1414 187.038 34.3141 186.299 34.6603C185.56 35.0056 184.928 35.4775 184.403 36.0742C183.87 36.6851 183.459 37.3892 183.191 38.1496C182.906 38.947 182.763 39.7864 182.767 40.6313H182.766ZM208.147 21.5663C208.147 21.1324 208.257 20.7667 208.478 20.4684C208.7 20.1691 209.08 20.0204 209.618 20.0204H214.694C214.832 20.0204 214.978 20.0576 215.129 20.1319C215.288 20.2121 215.432 20.3191 215.554 20.448C215.685 20.5835 215.795 20.7464 215.885 20.9359C215.976 21.1262 216.021 21.3361 216.021 21.5663V51.9652C216.021 52.4805 215.872 52.87 215.574 53.1348C215.278 53.3995 214.895 53.5314 214.425 53.5314H209.618C209.08 53.5314 208.7 53.3986 208.478 53.1348C208.257 52.87 208.147 52.4796 208.147 51.9652V21.5663ZM243.038 50.4388C241.836 51.5286 240.447 52.4001 238.935 53.0126C237.404 53.6322 235.763 53.947 234.108 53.9387C232.214 53.9387 230.427 53.5996 228.742 52.9205C227.095 52.2668 225.59 51.3106 224.308 50.1032C223.031 48.8936 222.003 47.4529 221.283 45.8604C220.537 44.2331 220.164 42.4632 220.164 40.5499C220.164 39.3564 220.312 38.2 220.61 37.0809C220.897 35.9859 221.322 34.9302 221.874 33.9378C222.419 32.961 223.087 32.0553 223.862 31.2418C224.635 30.4269 225.517 29.7184 226.483 29.1354C227.466 28.545 228.525 28.0865 229.632 27.7719C230.797 27.4422 232.004 27.2779 233.216 27.2841C234.363 27.2841 235.474 27.4337 236.552 27.7321C237.629 28.0305 238.642 28.451 239.587 28.9929C240.534 29.5356 241.399 30.1873 242.187 30.9469C242.964 31.6939 243.646 32.5309 244.218 33.4393C244.784 34.3412 245.227 35.3126 245.534 36.3283C245.844 37.3527 246 38.4072 246 39.4918C246 40.1975 245.989 40.7739 245.968 41.2219C245.948 41.669 245.84 42.0258 245.648 42.2897C245.454 42.5553 245.134 42.7377 244.684 42.8386C244.235 42.9413 243.575 42.9918 242.706 42.9918H227.789C227.927 43.8594 228.206 44.5855 228.627 45.1698C229.017 45.7229 229.513 46.196 230.088 46.5625C230.64 46.9087 231.227 47.1558 231.849 47.3063C232.425 47.4495 233.016 47.5244 233.61 47.5294C234.108 47.5294 234.618 47.478 235.143 47.3771C235.66 47.2774 236.169 47.1413 236.666 46.9698C237.131 46.8111 237.582 46.6135 238.012 46.3793C238.42 46.1561 238.748 45.9215 238.997 45.678C239.218 45.501 239.408 45.369 239.567 45.2805C239.725 45.192 239.895 45.1486 240.074 45.1486C240.254 45.1486 240.437 45.2106 240.624 45.3319C240.851 45.4878 241.062 45.6648 241.255 45.8604L243.451 48.3023C243.603 48.4794 243.7 48.6388 243.742 48.7804C243.783 48.923 243.804 49.0691 243.804 49.2178C243.804 49.4896 243.727 49.7234 243.576 49.9199C243.423 50.1177 243.241 50.2924 243.037 50.4388H243.038ZM233.072 33.4898C232.533 33.4898 232.012 33.5951 231.508 33.805C230.996 34.0194 230.518 34.3038 230.088 34.6496C229.646 35.002 229.249 35.4022 228.897 35.8502C228.56 36.2726 228.272 36.7298 228.037 37.2137H238.624C238.346 36.7036 238.031 36.2139 237.681 35.7484C237.349 35.3068 236.959 34.91 236.521 34.5682C236.073 34.2224 235.569 33.9541 235.029 33.7749C234.47 33.5845 233.817 33.4898 233.072 33.4898Z" fill="white"/>
</svg>
